<?xml version="1.0" encoding="UTF-8" standalone="no"?>
<svg
   viewBox="0 0 335 335"
   version="1.1"
   id="svg1"
   sodipodi:docname="ChatGPT-Logo.svg"
   width="335"
   height="335"
   inkscape:version="1.4 (86a8ad7, 2024-10-11)"
   inkscape:export-filename="ChatGPT-Logo-export.svg"
   inkscape:export-xdpi="96"
   inkscape:export-ydpi="96"
   xmlns:inkscape="http://www.inkscape.org/namespaces/inkscape"
   xmlns:sodipodi="http://sodipodi.sourceforge.net/DTD/sodipodi-0.dtd"
   xmlns="http://www.w3.org/2000/svg"
   xmlns:svg="http://www.w3.org/2000/svg">
  <defs
     id="defs1" />
  <sodipodi:namedview
     id="namedview1"
     pagecolor="#ffffff"
     bordercolor="#000000"
     borderopacity="0.25"
     inkscape:showpageshadow="2"
     inkscape:pageopacity="0.0"
     inkscape:pagecheckerboard="0"
     inkscape:deskcolor="#d1d1d1"
     inkscape:zoom="1.9546875"
     inkscape:cx="136.33893"
     inkscape:cy="279.58433"
     inkscape:window-width="2560"
     inkscape:window-height="1511"
     inkscape:window-x="-9"
     inkscape:window-y="-9"
     inkscape:window-maximized="1"
     inkscape:current-layer="g166">
    <inkscape:page
       x="0"
       y="0"
       width="335"
       height="335"
       id="page2"
       margin="0"
       bleed="0" />
  </sodipodi:namedview>
  <g
     id="g166"
     transform="translate(-2.6297977,11.864342)">
    <rect
       style="fill:#ffffff;fill-opacity:1;stroke:none;stroke-opacity:1"
       id="rect1"
       height="335"
       x="2.6297977"
       y="-11.864342"
       width="335"
       rx="67.809753" />
    <g
       id="g165"
       inkscape:transform-center-x="30.978451"
       inkscape:transform-center-y="-142.70009"
       transform="rotate(7.5469865,239.83393,298.219)">
      <path
         id="path155"
         style="fill:#000000;fill-opacity:1;stroke:none;stroke-opacity:1"
         d="m 249.07243,275.45179 c 1.80655,-3.61133 3.35798,-7.39173 4.62757,-11.32179 22.51,-4.61 41.94,-18.7 53.31,-38.67 17.57,-30.32 13.55,-68.51 -9.94,-94.51 l -0.01,0.02 c 7.26,-21.79 4.76,-45.66 -6.85,-65.48 C 272.75,35.09 237.65,19.45 203.37,26.81 188.12,9.63 166.21,-0.14 143.24,0 115.45696,-0.0634316 90.157213,14.106509 75.495884,36.597858 L 89.55991,54.110623 C 99.404937,34.421957 119.7633,20.905805 143.27,20.92 c 14.01,0 27.57,4.92 38.34,13.88 -0.49,0.26 -1.33,0.73 -1.89,1.07 L 116,72.67 c -3.26,1.85 -5.26,5.31 -5.24,9.06 l -0.0103,23.04126 14.6003,50.49632 V 140 v 0 l 34.65,-20.01 34.65,20 V 180 l -21.25511,12.26846 13.9277,8.84854 7.33741,-4.237 v 8.89855 l 14.57999,9.26467 1e-5,-66.61322 26.93,15.55 c 0.29,0.14 0.48,0.42 0.52,0.74 v 74.39 c -0.004,3.40916 -0.29236,6.75184 -0.84231,10.0056 z M 252.43,156.45 174.64,111.53 201.57,95.99 c 0.27,-0.18 0.61,-0.21 0.91,-0.08 l 64.42,37.19 c 28.68,16.57 38.51,53.26 21.94,81.94 -7.01,12.14 -18.05,21.44 -31.2,26.28 v -75.81 c 0.03,-3.74 -1.96,-7.2 -5.2,-9.06 h -0.01 v 0 m 26.8,-40.34 c -0.47,-0.29 -1.3,-0.79 -1.89,-1.13 l -63.72,-36.8 c -3.23,-1.89 -7.23,-1.89 -10.47,0 L 125.36,123.1 V 92 c -0.02,-0.32 0.13,-0.63 0.38,-0.83 l 64.41,-37.16 c 28.69,-16.55 65.37,-6.7 81.91,22 6.99,12.12 9.52,26.31 7.15,40.1 h 0.02 v 0"
         sodipodi:nodetypes="cccccccccccccccccccccccccccccccccccccccccccccccccccccccc" />
    </g>
    <path
       id="path154"
       style="fill:#000000;fill-opacity:1;stroke:none;stroke-opacity:1"
       d="m 238.91723,250.65037 c -4.78635,28.31833 -29.39685,49.90161 -59.06769,49.9644 -14.03,0.02 -27.62,-4.89 -38.39,-13.88 0.49,-0.26 1.34,-0.73 1.89,-1.07 l 63.72,-36.8 c 3.26,-1.85 5.26,-5.32 5.24,-9.07 l -1e-5,-23.21678 -14.57999,-9.26467 v 22.20145 c 0.02,0.32 -0.13,0.63 -0.38,0.83 l -64.41,37.19 c -28.69,16.52 -65.329996,6.7 -81.919996,-21.95 h -0.01 c -7.03,-12.14 -9.56,-26.37 -7.15,-40.18 0.47,0.28 1.3,0.79 1.89,1.13 l 63.719996,36.8 c 3.23,1.89 7.23,1.89 10.47,0 l 70.45259,-40.683 -13.9277,-8.84854 -13.39489,7.73154 -34.65,-20 v -24.73242 l -14.60026,-50.49632 -0.0297,66.74874 v 0.02 l -26.939996,-15.55 c -0.29,-0.14 -0.48,-0.42 -0.52,-0.74 V 82.394772 c 0.0058,-9.613294 2.273691,-18.697506 6.29991,-26.749377 L 78.565428,38.13263 c -3.829554,5.874763 -6.933292,12.317262 -9.165884,19.222142 -22.51,4.61 -41.94,18.7 -53.31,38.67 -17.5899996,30.319998 -13.5799996,68.539998 9.92,94.539998 -7.26,21.79 -4.76,45.66 6.85,65.48 17.46,30.4 52.56,46.04 86.839996,38.68 15.24,17.18 37.16,26.95 60.13,26.8 30.9309,0.0794 58.77964,-17.48584 72.31243,-44.53821 z M 34.239544,106.49477 c 7,-12.159998 18.05,-21.459998 31.21,-26.289998 0,0.55 -0.03,1.52 -0.03,2.2 v 73.609998 c -0.02,3.74 1.98,7.21 5.23,9.06 l 77.789996,44.91 -26.93,15.55 c -0.27,0.18 -0.61,0.21 -0.91,0.08 l -64.419996,-37.22 c -28.63,-16.58 -38.45,-53.21 -21.95,-81.89 l 0.01,-0.01 m 0,0 v 0"
       sodipodi:nodetypes="ccccccccccccccccccccccccccccccccccccccccscccccccccc" />
    <path
       id="path1-8"
       style="fill:#74aa9c;fill-opacity:1;stroke:none;stroke-opacity:1"
       inkscape:transform-center-x="97.459124"
       inkscape:transform-center-y="-144.99249"
       d="M 259.73397,284.00636 232.28619,217.84991 153.85896,161.08651 132.51607,50.807607 102.98123,0.33713627 68.014491,22.170162 l 38.394429,64.014444 27.14397,85.077174 90.69064,58.78793 33.71857,56.35159 z"
       sodipodi:nodetypes="ccccccccccc" />
  </g>
</svg>
